<mxfile host="app.diagrams.net" modified="2023-08-29T07:20:04.129Z" agent="Mozilla/5.0 (Macintosh; Intel Mac OS X 10_15_7) AppleWebKit/537.36 (KHTML, like Gecko) Chrome/116.0.0.0 Safari/537.36" etag="xpwAchV2fXFDxNqi7G5u" version="21.6.9" type="github">
  <diagram name="Page-1" id="F-ybUAq942lAAm7DYyWX">
    <mxGraphModel dx="1306" dy="722" grid="1" gridSize="10" guides="1" tooltips="1" connect="1" arrows="1" fold="1" page="1" pageScale="1" pageWidth="1400" pageHeight="850" math="0" shadow="0">
      <root>
        <mxCell id="0" />
        <mxCell id="1" parent="0" />
        <mxCell id="sUzVyQHcFwTCvAZODAUD-1" value="MouseEvents" style="rounded=1;whiteSpace=wrap;html=1;" vertex="1" parent="1">
          <mxGeometry x="79" y="340" width="120" height="40" as="geometry" />
        </mxCell>
        <mxCell id="sUzVyQHcFwTCvAZODAUD-2" value="click" style="rounded=1;whiteSpace=wrap;html=1;" vertex="1" parent="1">
          <mxGeometry x="289" y="160" width="120" height="30" as="geometry" />
        </mxCell>
        <mxCell id="sUzVyQHcFwTCvAZODAUD-3" value="contextmenu" style="rounded=1;whiteSpace=wrap;html=1;" vertex="1" parent="1">
          <mxGeometry x="289" y="200" width="120" height="30" as="geometry" />
        </mxCell>
        <mxCell id="sUzVyQHcFwTCvAZODAUD-4" value="mousedown" style="rounded=1;whiteSpace=wrap;html=1;" vertex="1" parent="1">
          <mxGeometry x="289" y="240" width="120" height="30" as="geometry" />
        </mxCell>
        <mxCell id="sUzVyQHcFwTCvAZODAUD-5" value="mouseenter" style="rounded=1;whiteSpace=wrap;html=1;" vertex="1" parent="1">
          <mxGeometry x="289" y="280" width="120" height="30" as="geometry" />
        </mxCell>
        <mxCell id="sUzVyQHcFwTCvAZODAUD-6" value="mouseleave" style="rounded=1;whiteSpace=wrap;html=1;" vertex="1" parent="1">
          <mxGeometry x="289" y="320" width="120" height="30" as="geometry" />
        </mxCell>
        <mxCell id="sUzVyQHcFwTCvAZODAUD-7" value="mousemove" style="rounded=1;whiteSpace=wrap;html=1;" vertex="1" parent="1">
          <mxGeometry x="289" y="360" width="120" height="30" as="geometry" />
        </mxCell>
        <mxCell id="sUzVyQHcFwTCvAZODAUD-8" value="mouseout" style="rounded=1;whiteSpace=wrap;html=1;" vertex="1" parent="1">
          <mxGeometry x="289" y="400" width="120" height="30" as="geometry" />
        </mxCell>
        <mxCell id="sUzVyQHcFwTCvAZODAUD-9" value="mouseover" style="rounded=1;whiteSpace=wrap;html=1;" vertex="1" parent="1">
          <mxGeometry x="289" y="440" width="120" height="30" as="geometry" />
        </mxCell>
        <mxCell id="sUzVyQHcFwTCvAZODAUD-10" value="mouseup" style="rounded=1;whiteSpace=wrap;html=1;" vertex="1" parent="1">
          <mxGeometry x="289" y="480" width="120" height="30" as="geometry" />
        </mxCell>
        <mxCell id="sUzVyQHcFwTCvAZODAUD-11" value="wheel" style="rounded=1;whiteSpace=wrap;html=1;" vertex="1" parent="1">
          <mxGeometry x="289" y="520" width="120" height="30" as="geometry" />
        </mxCell>
        <mxCell id="sUzVyQHcFwTCvAZODAUD-12" value="dispatch" style="rounded=1;whiteSpace=wrap;html=1;" vertex="1" parent="1">
          <mxGeometry x="520" y="340" width="120" height="40" as="geometry" />
        </mxCell>
        <mxCell id="sUzVyQHcFwTCvAZODAUD-23" value="" style="group" vertex="1" connectable="0" parent="1">
          <mxGeometry x="779" y="160" width="150" height="390" as="geometry" />
        </mxCell>
        <mxCell id="sUzVyQHcFwTCvAZODAUD-13" value="onMouseClick" style="rounded=1;whiteSpace=wrap;html=1;" vertex="1" parent="sUzVyQHcFwTCvAZODAUD-23">
          <mxGeometry width="150" height="30" as="geometry" />
        </mxCell>
        <mxCell id="sUzVyQHcFwTCvAZODAUD-14" value="onMouseContextMenu" style="rounded=1;whiteSpace=wrap;html=1;" vertex="1" parent="sUzVyQHcFwTCvAZODAUD-23">
          <mxGeometry y="40" width="150" height="30" as="geometry" />
        </mxCell>
        <mxCell id="sUzVyQHcFwTCvAZODAUD-15" value="onMouseDown" style="rounded=1;whiteSpace=wrap;html=1;" vertex="1" parent="sUzVyQHcFwTCvAZODAUD-23">
          <mxGeometry y="80" width="150" height="30" as="geometry" />
        </mxCell>
        <mxCell id="sUzVyQHcFwTCvAZODAUD-16" value="onMouseEnter" style="rounded=1;whiteSpace=wrap;html=1;" vertex="1" parent="sUzVyQHcFwTCvAZODAUD-23">
          <mxGeometry y="120" width="150" height="30" as="geometry" />
        </mxCell>
        <mxCell id="sUzVyQHcFwTCvAZODAUD-17" value="onMouseLeave" style="rounded=1;whiteSpace=wrap;html=1;" vertex="1" parent="sUzVyQHcFwTCvAZODAUD-23">
          <mxGeometry y="160" width="150" height="30" as="geometry" />
        </mxCell>
        <mxCell id="sUzVyQHcFwTCvAZODAUD-18" value="onMouseMove" style="rounded=1;whiteSpace=wrap;html=1;" vertex="1" parent="sUzVyQHcFwTCvAZODAUD-23">
          <mxGeometry y="200" width="150" height="30" as="geometry" />
        </mxCell>
        <mxCell id="sUzVyQHcFwTCvAZODAUD-19" value="onMouseOut" style="rounded=1;whiteSpace=wrap;html=1;" vertex="1" parent="sUzVyQHcFwTCvAZODAUD-23">
          <mxGeometry y="240" width="150" height="30" as="geometry" />
        </mxCell>
        <mxCell id="sUzVyQHcFwTCvAZODAUD-20" value="onMouseOver" style="rounded=1;whiteSpace=wrap;html=1;" vertex="1" parent="sUzVyQHcFwTCvAZODAUD-23">
          <mxGeometry y="280" width="150" height="30" as="geometry" />
        </mxCell>
        <mxCell id="sUzVyQHcFwTCvAZODAUD-21" value="onMouseUp" style="rounded=1;whiteSpace=wrap;html=1;" vertex="1" parent="sUzVyQHcFwTCvAZODAUD-23">
          <mxGeometry y="320" width="150" height="30" as="geometry" />
        </mxCell>
        <mxCell id="sUzVyQHcFwTCvAZODAUD-22" value="onMouseWheel" style="rounded=1;whiteSpace=wrap;html=1;" vertex="1" parent="sUzVyQHcFwTCvAZODAUD-23">
          <mxGeometry y="360" width="150" height="30" as="geometry" />
        </mxCell>
        <mxCell id="sUzVyQHcFwTCvAZODAUD-24" value="&lt;font style=&quot;font-size: 14px;&quot;&gt;&lt;b&gt;inputFactory&lt;/b&gt;&lt;/font&gt;" style="rounded=0;whiteSpace=wrap;html=1;" vertex="1" parent="1">
          <mxGeometry x="779" y="100" width="150" height="30" as="geometry" />
        </mxCell>
        <mxCell id="sUzVyQHcFwTCvAZODAUD-25" value="" style="endArrow=none;dashed=1;html=1;rounded=0;entryX=0;entryY=0.5;entryDx=0;entryDy=0;exitX=1;exitY=0.5;exitDx=0;exitDy=0;" edge="1" parent="1" source="sUzVyQHcFwTCvAZODAUD-24" target="sUzVyQHcFwTCvAZODAUD-24">
          <mxGeometry width="50" height="50" relative="1" as="geometry">
            <mxPoint x="979" y="110" as="sourcePoint" />
            <mxPoint x="689" y="340" as="targetPoint" />
            <Array as="points">
              <mxPoint x="1009" y="115" />
              <mxPoint x="1009" y="590" />
              <mxPoint x="699" y="590" />
              <mxPoint x="699" y="115" />
            </Array>
          </mxGeometry>
        </mxCell>
        <mxCell id="sUzVyQHcFwTCvAZODAUD-37" value="" style="group" vertex="1" connectable="0" parent="1">
          <mxGeometry x="249" y="175" height="360" as="geometry" />
        </mxCell>
        <mxCell id="sUzVyQHcFwTCvAZODAUD-27" value="" style="endArrow=classic;html=1;rounded=0;exitX=1;exitY=0.5;exitDx=0;exitDy=0;entryX=0;entryY=0.5;entryDx=0;entryDy=0;dashed=1;" edge="1" parent="sUzVyQHcFwTCvAZODAUD-37" source="sUzVyQHcFwTCvAZODAUD-1" target="sUzVyQHcFwTCvAZODAUD-2">
          <mxGeometry width="50" height="50" relative="1" as="geometry">
            <mxPoint x="390" y="215" as="sourcePoint" />
            <mxPoint x="440" y="165" as="targetPoint" />
            <Array as="points">
              <mxPoint y="185" />
              <mxPoint />
            </Array>
          </mxGeometry>
        </mxCell>
        <mxCell id="sUzVyQHcFwTCvAZODAUD-28" value="" style="endArrow=classic;html=1;rounded=0;exitX=1;exitY=0.5;exitDx=0;exitDy=0;entryX=0;entryY=0.5;entryDx=0;entryDy=0;dashed=1;" edge="1" parent="sUzVyQHcFwTCvAZODAUD-37" source="sUzVyQHcFwTCvAZODAUD-1" target="sUzVyQHcFwTCvAZODAUD-3">
          <mxGeometry width="50" height="50" relative="1" as="geometry">
            <mxPoint x="390" y="215" as="sourcePoint" />
            <mxPoint x="440" y="165" as="targetPoint" />
            <Array as="points">
              <mxPoint y="185" />
              <mxPoint y="40" />
            </Array>
          </mxGeometry>
        </mxCell>
        <mxCell id="sUzVyQHcFwTCvAZODAUD-29" value="" style="endArrow=classic;html=1;rounded=0;exitX=1;exitY=0.5;exitDx=0;exitDy=0;entryX=0;entryY=0.5;entryDx=0;entryDy=0;dashed=1;" edge="1" parent="sUzVyQHcFwTCvAZODAUD-37" source="sUzVyQHcFwTCvAZODAUD-1" target="sUzVyQHcFwTCvAZODAUD-4">
          <mxGeometry width="50" height="50" relative="1" as="geometry">
            <mxPoint x="390" y="215" as="sourcePoint" />
            <mxPoint x="440" y="165" as="targetPoint" />
            <Array as="points">
              <mxPoint y="185" />
              <mxPoint y="80" />
            </Array>
          </mxGeometry>
        </mxCell>
        <mxCell id="sUzVyQHcFwTCvAZODAUD-30" value="" style="endArrow=classic;html=1;rounded=0;exitX=1;exitY=0.5;exitDx=0;exitDy=0;entryX=0;entryY=0.5;entryDx=0;entryDy=0;dashed=1;" edge="1" parent="sUzVyQHcFwTCvAZODAUD-37" source="sUzVyQHcFwTCvAZODAUD-1" target="sUzVyQHcFwTCvAZODAUD-5">
          <mxGeometry width="50" height="50" relative="1" as="geometry">
            <mxPoint x="390" y="215" as="sourcePoint" />
            <mxPoint x="440" y="165" as="targetPoint" />
            <Array as="points">
              <mxPoint y="185" />
              <mxPoint y="120" />
            </Array>
          </mxGeometry>
        </mxCell>
        <mxCell id="sUzVyQHcFwTCvAZODAUD-31" value="" style="endArrow=classic;html=1;rounded=0;exitX=1;exitY=0.5;exitDx=0;exitDy=0;entryX=0;entryY=0.5;entryDx=0;entryDy=0;dashed=1;" edge="1" parent="sUzVyQHcFwTCvAZODAUD-37" source="sUzVyQHcFwTCvAZODAUD-1" target="sUzVyQHcFwTCvAZODAUD-6">
          <mxGeometry width="50" height="50" relative="1" as="geometry">
            <mxPoint x="390" y="215" as="sourcePoint" />
            <mxPoint x="440" y="165" as="targetPoint" />
            <Array as="points">
              <mxPoint y="185" />
              <mxPoint y="160" />
            </Array>
          </mxGeometry>
        </mxCell>
        <mxCell id="sUzVyQHcFwTCvAZODAUD-32" value="" style="endArrow=classic;html=1;rounded=0;exitX=1;exitY=0.5;exitDx=0;exitDy=0;entryX=0;entryY=0.5;entryDx=0;entryDy=0;dashed=1;" edge="1" parent="sUzVyQHcFwTCvAZODAUD-37" source="sUzVyQHcFwTCvAZODAUD-1" target="sUzVyQHcFwTCvAZODAUD-7">
          <mxGeometry width="50" height="50" relative="1" as="geometry">
            <mxPoint x="390" y="215" as="sourcePoint" />
            <mxPoint x="440" y="165" as="targetPoint" />
            <Array as="points">
              <mxPoint y="185" />
              <mxPoint y="200" />
            </Array>
          </mxGeometry>
        </mxCell>
        <mxCell id="sUzVyQHcFwTCvAZODAUD-33" value="" style="endArrow=classic;html=1;rounded=0;exitX=1;exitY=0.5;exitDx=0;exitDy=0;entryX=0;entryY=0.5;entryDx=0;entryDy=0;dashed=1;" edge="1" parent="sUzVyQHcFwTCvAZODAUD-37" source="sUzVyQHcFwTCvAZODAUD-1" target="sUzVyQHcFwTCvAZODAUD-8">
          <mxGeometry width="50" height="50" relative="1" as="geometry">
            <mxPoint x="390" y="215" as="sourcePoint" />
            <mxPoint x="440" y="165" as="targetPoint" />
            <Array as="points">
              <mxPoint y="185" />
              <mxPoint y="240" />
            </Array>
          </mxGeometry>
        </mxCell>
        <mxCell id="sUzVyQHcFwTCvAZODAUD-34" value="" style="endArrow=classic;html=1;rounded=0;exitX=1;exitY=0.5;exitDx=0;exitDy=0;entryX=0;entryY=0.5;entryDx=0;entryDy=0;dashed=1;" edge="1" parent="sUzVyQHcFwTCvAZODAUD-37" source="sUzVyQHcFwTCvAZODAUD-1" target="sUzVyQHcFwTCvAZODAUD-9">
          <mxGeometry width="50" height="50" relative="1" as="geometry">
            <mxPoint x="390" y="215" as="sourcePoint" />
            <mxPoint x="440" y="165" as="targetPoint" />
            <Array as="points">
              <mxPoint y="185" />
              <mxPoint y="280" />
            </Array>
          </mxGeometry>
        </mxCell>
        <mxCell id="sUzVyQHcFwTCvAZODAUD-35" value="" style="endArrow=classic;html=1;rounded=0;exitX=1;exitY=0.5;exitDx=0;exitDy=0;entryX=0;entryY=0.5;entryDx=0;entryDy=0;dashed=1;" edge="1" parent="sUzVyQHcFwTCvAZODAUD-37" source="sUzVyQHcFwTCvAZODAUD-1" target="sUzVyQHcFwTCvAZODAUD-10">
          <mxGeometry width="50" height="50" relative="1" as="geometry">
            <mxPoint x="390" y="215" as="sourcePoint" />
            <mxPoint x="440" y="165" as="targetPoint" />
            <Array as="points">
              <mxPoint y="185" />
              <mxPoint y="320" />
            </Array>
          </mxGeometry>
        </mxCell>
        <mxCell id="sUzVyQHcFwTCvAZODAUD-36" value="" style="endArrow=classic;html=1;rounded=0;exitX=1;exitY=0.5;exitDx=0;exitDy=0;entryX=0;entryY=0.5;entryDx=0;entryDy=0;dashed=1;" edge="1" parent="sUzVyQHcFwTCvAZODAUD-37" source="sUzVyQHcFwTCvAZODAUD-1" target="sUzVyQHcFwTCvAZODAUD-11">
          <mxGeometry width="50" height="50" relative="1" as="geometry">
            <mxPoint x="390" y="215" as="sourcePoint" />
            <mxPoint x="440" y="165" as="targetPoint" />
            <Array as="points">
              <mxPoint y="185" />
              <mxPoint y="360" />
            </Array>
          </mxGeometry>
        </mxCell>
        <mxCell id="sUzVyQHcFwTCvAZODAUD-67" value="" style="group" vertex="1" connectable="0" parent="1">
          <mxGeometry x="409" y="175" width="50" height="360" as="geometry" />
        </mxCell>
        <mxCell id="sUzVyQHcFwTCvAZODAUD-52" value="" style="endArrow=classic;html=1;rounded=0;exitX=1;exitY=0.5;exitDx=0;exitDy=0;entryX=0;entryY=0.5;entryDx=0;entryDy=0;dashed=1;" edge="1" parent="sUzVyQHcFwTCvAZODAUD-67" source="sUzVyQHcFwTCvAZODAUD-2" target="sUzVyQHcFwTCvAZODAUD-12">
          <mxGeometry width="50" height="50" relative="1" as="geometry">
            <mxPoint x="230" y="215" as="sourcePoint" />
            <mxPoint x="280" y="165" as="targetPoint" />
            <Array as="points">
              <mxPoint x="50" />
              <mxPoint x="50" y="185" />
            </Array>
          </mxGeometry>
        </mxCell>
        <mxCell id="sUzVyQHcFwTCvAZODAUD-58" value="" style="endArrow=none;html=1;rounded=0;exitX=1;exitY=0.5;exitDx=0;exitDy=0;dashed=1;" edge="1" parent="sUzVyQHcFwTCvAZODAUD-67" source="sUzVyQHcFwTCvAZODAUD-11">
          <mxGeometry width="50" height="50" relative="1" as="geometry">
            <mxPoint x="230" y="215" as="sourcePoint" />
            <mxPoint x="50" y="185" as="targetPoint" />
            <Array as="points">
              <mxPoint x="50" y="360" />
            </Array>
          </mxGeometry>
        </mxCell>
        <mxCell id="sUzVyQHcFwTCvAZODAUD-59" value="" style="endArrow=none;html=1;rounded=0;exitX=1;exitY=0.5;exitDx=0;exitDy=0;dashed=1;" edge="1" parent="sUzVyQHcFwTCvAZODAUD-67" source="sUzVyQHcFwTCvAZODAUD-3">
          <mxGeometry width="50" height="50" relative="1" as="geometry">
            <mxPoint x="230" y="215" as="sourcePoint" />
            <mxPoint x="50" y="40" as="targetPoint" />
          </mxGeometry>
        </mxCell>
        <mxCell id="sUzVyQHcFwTCvAZODAUD-60" value="" style="endArrow=none;html=1;rounded=0;exitX=1;exitY=0.5;exitDx=0;exitDy=0;dashed=1;" edge="1" parent="sUzVyQHcFwTCvAZODAUD-67">
          <mxGeometry width="50" height="50" relative="1" as="geometry">
            <mxPoint y="79.5" as="sourcePoint" />
            <mxPoint x="50" y="79.5" as="targetPoint" />
          </mxGeometry>
        </mxCell>
        <mxCell id="sUzVyQHcFwTCvAZODAUD-61" value="" style="endArrow=none;html=1;rounded=0;exitX=1;exitY=0.5;exitDx=0;exitDy=0;dashed=1;" edge="1" parent="sUzVyQHcFwTCvAZODAUD-67">
          <mxGeometry width="50" height="50" relative="1" as="geometry">
            <mxPoint y="119.5" as="sourcePoint" />
            <mxPoint x="50" y="119.5" as="targetPoint" />
          </mxGeometry>
        </mxCell>
        <mxCell id="sUzVyQHcFwTCvAZODAUD-62" value="" style="endArrow=none;html=1;rounded=0;exitX=1;exitY=0.5;exitDx=0;exitDy=0;dashed=1;" edge="1" parent="sUzVyQHcFwTCvAZODAUD-67">
          <mxGeometry width="50" height="50" relative="1" as="geometry">
            <mxPoint y="159.5" as="sourcePoint" />
            <mxPoint x="50" y="159.5" as="targetPoint" />
          </mxGeometry>
        </mxCell>
        <mxCell id="sUzVyQHcFwTCvAZODAUD-63" value="" style="endArrow=none;html=1;rounded=0;exitX=1;exitY=0.5;exitDx=0;exitDy=0;dashed=1;" edge="1" parent="sUzVyQHcFwTCvAZODAUD-67">
          <mxGeometry width="50" height="50" relative="1" as="geometry">
            <mxPoint y="199.5" as="sourcePoint" />
            <mxPoint x="50" y="199.5" as="targetPoint" />
          </mxGeometry>
        </mxCell>
        <mxCell id="sUzVyQHcFwTCvAZODAUD-64" value="" style="endArrow=none;html=1;rounded=0;exitX=1;exitY=0.5;exitDx=0;exitDy=0;dashed=1;" edge="1" parent="sUzVyQHcFwTCvAZODAUD-67">
          <mxGeometry width="50" height="50" relative="1" as="geometry">
            <mxPoint y="239.5" as="sourcePoint" />
            <mxPoint x="50" y="239.5" as="targetPoint" />
          </mxGeometry>
        </mxCell>
        <mxCell id="sUzVyQHcFwTCvAZODAUD-65" value="" style="endArrow=none;html=1;rounded=0;exitX=1;exitY=0.5;exitDx=0;exitDy=0;dashed=1;" edge="1" parent="sUzVyQHcFwTCvAZODAUD-67">
          <mxGeometry width="50" height="50" relative="1" as="geometry">
            <mxPoint y="279.5" as="sourcePoint" />
            <mxPoint x="50" y="279.5" as="targetPoint" />
          </mxGeometry>
        </mxCell>
        <mxCell id="sUzVyQHcFwTCvAZODAUD-66" value="" style="endArrow=none;html=1;rounded=0;exitX=1;exitY=0.5;exitDx=0;exitDy=0;dashed=1;" edge="1" parent="sUzVyQHcFwTCvAZODAUD-67">
          <mxGeometry width="50" height="50" relative="1" as="geometry">
            <mxPoint y="319.5" as="sourcePoint" />
            <mxPoint x="50" y="319.5" as="targetPoint" />
          </mxGeometry>
        </mxCell>
        <mxCell id="sUzVyQHcFwTCvAZODAUD-79" value="" style="endArrow=classic;html=1;rounded=0;entryX=0;entryY=0.5;entryDx=0;entryDy=0;exitX=1;exitY=0.5;exitDx=0;exitDy=0;dashed=1;" edge="1" parent="1" source="sUzVyQHcFwTCvAZODAUD-12" target="sUzVyQHcFwTCvAZODAUD-13">
          <mxGeometry width="50" height="50" relative="1" as="geometry">
            <mxPoint x="639" y="390" as="sourcePoint" />
            <mxPoint x="689" y="340" as="targetPoint" />
            <Array as="points">
              <mxPoint x="729" y="360" />
              <mxPoint x="729" y="175" />
            </Array>
          </mxGeometry>
        </mxCell>
        <mxCell id="sUzVyQHcFwTCvAZODAUD-82" value="" style="endArrow=classic;html=1;rounded=0;entryX=0;entryY=0.5;entryDx=0;entryDy=0;dashed=1;" edge="1" parent="1" target="sUzVyQHcFwTCvAZODAUD-22">
          <mxGeometry width="50" height="50" relative="1" as="geometry">
            <mxPoint x="729" y="360" as="sourcePoint" />
            <mxPoint x="689" y="340" as="targetPoint" />
            <Array as="points">
              <mxPoint x="729" y="535" />
            </Array>
          </mxGeometry>
        </mxCell>
        <mxCell id="sUzVyQHcFwTCvAZODAUD-83" value="" style="endArrow=classic;html=1;rounded=0;entryX=0;entryY=0.5;entryDx=0;entryDy=0;dashed=1;" edge="1" parent="1" target="sUzVyQHcFwTCvAZODAUD-14">
          <mxGeometry width="50" height="50" relative="1" as="geometry">
            <mxPoint x="729" y="215" as="sourcePoint" />
            <mxPoint x="689" y="340" as="targetPoint" />
          </mxGeometry>
        </mxCell>
        <mxCell id="sUzVyQHcFwTCvAZODAUD-84" value="" style="endArrow=classic;html=1;rounded=0;entryX=0;entryY=0.5;entryDx=0;entryDy=0;dashed=1;" edge="1" parent="1">
          <mxGeometry width="50" height="50" relative="1" as="geometry">
            <mxPoint x="729" y="254.5" as="sourcePoint" />
            <mxPoint x="779" y="254.5" as="targetPoint" />
          </mxGeometry>
        </mxCell>
        <mxCell id="sUzVyQHcFwTCvAZODAUD-85" value="" style="endArrow=classic;html=1;rounded=0;entryX=0;entryY=0.5;entryDx=0;entryDy=0;dashed=1;" edge="1" parent="1">
          <mxGeometry width="50" height="50" relative="1" as="geometry">
            <mxPoint x="729" y="294.5" as="sourcePoint" />
            <mxPoint x="779" y="294.5" as="targetPoint" />
          </mxGeometry>
        </mxCell>
        <mxCell id="sUzVyQHcFwTCvAZODAUD-86" value="" style="endArrow=classic;html=1;rounded=0;entryX=0;entryY=0.5;entryDx=0;entryDy=0;dashed=1;" edge="1" parent="1">
          <mxGeometry width="50" height="50" relative="1" as="geometry">
            <mxPoint x="729" y="334.5" as="sourcePoint" />
            <mxPoint x="779" y="334.5" as="targetPoint" />
          </mxGeometry>
        </mxCell>
        <mxCell id="sUzVyQHcFwTCvAZODAUD-87" value="" style="endArrow=classic;html=1;rounded=0;entryX=0;entryY=0.5;entryDx=0;entryDy=0;dashed=1;" edge="1" parent="1">
          <mxGeometry width="50" height="50" relative="1" as="geometry">
            <mxPoint x="729" y="374.5" as="sourcePoint" />
            <mxPoint x="779" y="374.5" as="targetPoint" />
          </mxGeometry>
        </mxCell>
        <mxCell id="sUzVyQHcFwTCvAZODAUD-88" value="" style="endArrow=classic;html=1;rounded=0;entryX=0;entryY=0.5;entryDx=0;entryDy=0;dashed=1;" edge="1" parent="1">
          <mxGeometry width="50" height="50" relative="1" as="geometry">
            <mxPoint x="729" y="414.5" as="sourcePoint" />
            <mxPoint x="779" y="414.5" as="targetPoint" />
          </mxGeometry>
        </mxCell>
        <mxCell id="sUzVyQHcFwTCvAZODAUD-89" value="" style="endArrow=classic;html=1;rounded=0;entryX=0;entryY=0.5;entryDx=0;entryDy=0;dashed=1;" edge="1" parent="1">
          <mxGeometry width="50" height="50" relative="1" as="geometry">
            <mxPoint x="729" y="454.5" as="sourcePoint" />
            <mxPoint x="779" y="454.5" as="targetPoint" />
          </mxGeometry>
        </mxCell>
        <mxCell id="sUzVyQHcFwTCvAZODAUD-90" value="" style="endArrow=classic;html=1;rounded=0;entryX=0;entryY=0.5;entryDx=0;entryDy=0;dashed=1;" edge="1" parent="1">
          <mxGeometry width="50" height="50" relative="1" as="geometry">
            <mxPoint x="729" y="494.5" as="sourcePoint" />
            <mxPoint x="779" y="494.5" as="targetPoint" />
          </mxGeometry>
        </mxCell>
        <mxCell id="sUzVyQHcFwTCvAZODAUD-91" value="Consumer Components" style="rounded=1;whiteSpace=wrap;html=1;" vertex="1" parent="1">
          <mxGeometry x="1079" y="340" width="120" height="40" as="geometry" />
        </mxCell>
        <mxCell id="sUzVyQHcFwTCvAZODAUD-92" value="" style="endArrow=classic;html=1;rounded=0;entryX=1;entryY=0.5;entryDx=0;entryDy=0;exitX=0;exitY=0.5;exitDx=0;exitDy=0;dashed=1;" edge="1" parent="1" source="sUzVyQHcFwTCvAZODAUD-91" target="sUzVyQHcFwTCvAZODAUD-13">
          <mxGeometry width="50" height="50" relative="1" as="geometry">
            <mxPoint x="639" y="390" as="sourcePoint" />
            <mxPoint x="689" y="340" as="targetPoint" />
            <Array as="points">
              <mxPoint x="979" y="360" />
              <mxPoint x="979" y="175" />
            </Array>
          </mxGeometry>
        </mxCell>
        <mxCell id="sUzVyQHcFwTCvAZODAUD-93" value="" style="endArrow=classic;html=1;rounded=0;entryX=1;entryY=0.5;entryDx=0;entryDy=0;dashed=1;" edge="1" parent="1" target="sUzVyQHcFwTCvAZODAUD-22">
          <mxGeometry width="50" height="50" relative="1" as="geometry">
            <mxPoint x="979" y="360" as="sourcePoint" />
            <mxPoint x="689" y="340" as="targetPoint" />
            <Array as="points">
              <mxPoint x="979" y="535" />
            </Array>
          </mxGeometry>
        </mxCell>
        <mxCell id="sUzVyQHcFwTCvAZODAUD-94" value="" style="endArrow=classic;html=1;rounded=0;entryX=1;entryY=0.5;entryDx=0;entryDy=0;dashed=1;" edge="1" parent="1" target="sUzVyQHcFwTCvAZODAUD-21">
          <mxGeometry width="50" height="50" relative="1" as="geometry">
            <mxPoint x="979" y="495" as="sourcePoint" />
            <mxPoint x="689" y="340" as="targetPoint" />
          </mxGeometry>
        </mxCell>
        <mxCell id="sUzVyQHcFwTCvAZODAUD-95" value="" style="endArrow=classic;html=1;rounded=0;entryX=1;entryY=0.5;entryDx=0;entryDy=0;dashed=1;" edge="1" parent="1">
          <mxGeometry width="50" height="50" relative="1" as="geometry">
            <mxPoint x="979" y="454.5" as="sourcePoint" />
            <mxPoint x="929" y="454.5" as="targetPoint" />
          </mxGeometry>
        </mxCell>
        <mxCell id="sUzVyQHcFwTCvAZODAUD-96" value="" style="endArrow=classic;html=1;rounded=0;entryX=1;entryY=0.5;entryDx=0;entryDy=0;dashed=1;" edge="1" parent="1">
          <mxGeometry width="50" height="50" relative="1" as="geometry">
            <mxPoint x="979" y="414.5" as="sourcePoint" />
            <mxPoint x="929" y="414.5" as="targetPoint" />
          </mxGeometry>
        </mxCell>
        <mxCell id="sUzVyQHcFwTCvAZODAUD-97" value="" style="endArrow=classic;html=1;rounded=0;entryX=1;entryY=0.5;entryDx=0;entryDy=0;dashed=1;" edge="1" parent="1">
          <mxGeometry width="50" height="50" relative="1" as="geometry">
            <mxPoint x="979" y="374.5" as="sourcePoint" />
            <mxPoint x="929" y="374.5" as="targetPoint" />
          </mxGeometry>
        </mxCell>
        <mxCell id="sUzVyQHcFwTCvAZODAUD-98" value="" style="endArrow=classic;html=1;rounded=0;entryX=1;entryY=0.5;entryDx=0;entryDy=0;dashed=1;" edge="1" parent="1">
          <mxGeometry width="50" height="50" relative="1" as="geometry">
            <mxPoint x="979" y="334.5" as="sourcePoint" />
            <mxPoint x="929" y="334.5" as="targetPoint" />
          </mxGeometry>
        </mxCell>
        <mxCell id="sUzVyQHcFwTCvAZODAUD-99" value="" style="endArrow=classic;html=1;rounded=0;entryX=1;entryY=0.5;entryDx=0;entryDy=0;dashed=1;" edge="1" parent="1">
          <mxGeometry width="50" height="50" relative="1" as="geometry">
            <mxPoint x="979" y="294.5" as="sourcePoint" />
            <mxPoint x="929" y="294.5" as="targetPoint" />
          </mxGeometry>
        </mxCell>
        <mxCell id="sUzVyQHcFwTCvAZODAUD-100" value="" style="endArrow=classic;html=1;rounded=0;entryX=1;entryY=0.5;entryDx=0;entryDy=0;dashed=1;" edge="1" parent="1">
          <mxGeometry width="50" height="50" relative="1" as="geometry">
            <mxPoint x="979" y="254.5" as="sourcePoint" />
            <mxPoint x="929" y="254.5" as="targetPoint" />
          </mxGeometry>
        </mxCell>
        <mxCell id="sUzVyQHcFwTCvAZODAUD-101" value="" style="endArrow=classic;html=1;rounded=0;entryX=1;entryY=0.5;entryDx=0;entryDy=0;dashed=1;" edge="1" parent="1">
          <mxGeometry width="50" height="50" relative="1" as="geometry">
            <mxPoint x="979" y="214.5" as="sourcePoint" />
            <mxPoint x="929" y="214.5" as="targetPoint" />
          </mxGeometry>
        </mxCell>
        <mxCell id="sUzVyQHcFwTCvAZODAUD-102" value="&lt;b&gt;&lt;font style=&quot;font-size: 14px;&quot;&gt;Kaveri Web App: Mouse Event Flow&lt;/font&gt;&lt;/b&gt;" style="text;html=1;align=center;verticalAlign=middle;resizable=0;points=[];autosize=1;strokeColor=none;fillColor=none;" vertex="1" parent="1">
          <mxGeometry x="490" y="650" width="260" height="30" as="geometry" />
        </mxCell>
        <mxCell id="sUzVyQHcFwTCvAZODAUD-105" value="" style="rounded=0;whiteSpace=wrap;html=1;fillColor=none;" vertex="1" parent="1">
          <mxGeometry x="40" y="40" width="1200" height="670" as="geometry" />
        </mxCell>
      </root>
    </mxGraphModel>
  </diagram>
</mxfile>
